<?xml version="1.0" encoding="UTF-8" standalone="no"?>
<!-- Created with Inkscape (http://www.inkscape.org/) -->

<svg
   width="409.98148mm"
   height="92.450272mm"
   viewBox="0 0 409.98148 92.450272"
   version="1.1"
   id="svg1"
   xmlns="http://www.w3.org/2000/svg"
   xmlns:svg="http://www.w3.org/2000/svg">
  <defs
     id="defs1">
    <clipPath
       clipPathUnits="userSpaceOnUse"
       id="clipPath5">
      <path
         d="M 0,327.22 H 1235.057 V 0 H 0 Z"
         transform="translate(-945.23725,-186.3277)"
         id="path5" />
    </clipPath>
    <clipPath
       clipPathUnits="userSpaceOnUse"
       id="clipPath3">
      <path
         d="M 0,327.22 H 1235.057 V 0 H 0 Z"
         transform="translate(-80.900102,-134.44591)"
         id="path3" />
    </clipPath>
    <clipPath
       clipPathUnits="userSpaceOnUse"
       id="clipPath7">
      <path
         d="M 0,327.22 H 1235.057 V 0 H 0 Z"
         transform="translate(-1100.2902,-227.64041)"
         id="path7" />
    </clipPath>
  </defs>
  <g
     id="layer1"
     transform="translate(106.62708,-26.458333)">
    <path
       id="path2"
       d="M 0,0 C 2.9,2.633 5.983,5.133 9.25,7.5 22.85,17.167 37.467,22.583 53.1,23.75 43.633,9.95 36.35,-1.267 31.25,-9.9 c -0.9,-1.4 -1.95,-3.05 -3.15,-4.95 -2.433,-4 -5.467,-9.083 -9.1,-15.25 -4.933,-7.8 -9.933,-13.817 -15,-18.05 -9.533,-9.3 -22.183,-16.467 -37.95,-21.5 1,12.533 5.017,26.417 12.05,41.65 5.767,10.733 13.067,20.067 21.9,28 m 202.65,122.35 c 2.767,0.033 4.867,0.033 6.3,0 h 1 0.95 c 1.467,0.033 3.567,0.033 6.3,0 h 5.05 c 2.9,0.067 5.9,1.7 9,4.9 1.567,1.567 3.433,3.467 5.6,5.7 4,4.133 7.25,7.317 9.75,9.55 0.1,-20.4 0.1,-33.183 0,-38.35 l -0.05,-5.25 c -0.233,-4.4 -1.567,-7.65 -4,-9.75 -3.3,-3.3 -7.433,-7.067 -12.4,-11.3 C 221.517,70.35 216.133,65.6 214,63.6 c 0.033,1.467 0.533,3.733 1.5,6.8 0.967,3 1.917,5.85 2.85,8.55 -2.133,0.4 -4.933,0.55 -8.4,0.45 -3.5,0.1 -6.317,-0.05 -8.45,-0.45 0.933,-2.7 1.9,-5.55 2.9,-8.55 0.933,-3.067 1.417,-5.333 1.45,-6.8 -2.133,2 -7.517,6.75 -16.15,14.25 -4.967,4.233 -9.1,8 -12.4,11.3 -2.433,2.1 -3.767,5.35 -4,9.75 l -0.05,5.25 c -0.1,5.167 -0.1,17.95 0,38.35 2.5,-2.233 5.75,-5.417 9.75,-9.55 2.167,-2.233 4.033,-4.133 5.6,-5.7 3.133,-3.2 6.15,-4.833 9.05,-4.9 h 5 m 48.5,36.3 c -2.967,-0.2 -5.483,-1.383 -7.55,-3.55 -2.233,-2.367 -5.367,-5.483 -9.4,-9.35 -5.3,-5.267 -9.483,-9.25 -12.55,-11.95 -4.467,0.033 -8.367,0.033 -11.7,0 -3.333,0.033 -7.233,0.033 -11.7,0 -3.1,2.7 -7.3,6.683 -12.6,11.95 -4,3.867 -7.133,6.983 -9.4,9.35 -2.067,2.167 -4.583,3.35 -7.55,3.55 -0.8,0 -1.617,-0.067 -2.45,-0.2 -2.8,-0.4 -4.15,-1.833 -4.05,-4.3 -0.067,-13.733 -0.117,-34.317 -0.15,-61.75 -0.1,-2.633 1.1,-5.25 3.6,-7.85 1.367,-1.5 3.583,-3.583 6.65,-6.25 l 0.65,-0.55 C 165.183,70.117 156.217,65.317 146.05,63.35 142.183,62.75 134.3,62.633 122.4,63 112.567,63.233 104.833,62.317 99.2,60.25 92.9,58.45 86.583,55.233 80.25,50.6 75.617,47.233 70.283,42.517 64.25,36.45 49.017,35.85 36.25,33.483 25.95,29.35 12.85,24.55 0.967,17.167 -9.7,7.2 c -10.333,-9.733 -18.617,-21 -24.85,-33.8 -8.867,-19.3 -12.583,-38.1 -11.15,-56.4 8.933,0.033 18.4,2.35 28.4,6.95 6.433,2.933 14.967,7.917 25.6,14.95 1.767,-9.233 3.217,-16.15 4.35,-20.75 1.8,-0.233 4.183,-0.4 7.15,-0.5 h 9.3 c 6,0 12.217,-0.017 18.65,-0.05 -3.167,13.667 -4.767,21.883 -4.8,24.65 -0.1,5.033 1.4,8.833 4.5,11.4 3.533,2.067 8.117,3.983 13.75,5.75 3.233,0.967 8.033,2.383 14.4,4.25 -2.9,-4.5 -4.233,-10.117 -4,-16.85 0.2,-3.633 1.933,-13.367 5.2,-29.2 h 32.55 c -1.9,9.6 -3,15.083 -3.3,16.45 -1.367,6.3 -1.367,11.35 0,15.15 1,2.6 2.2,4.967 3.6,7.1 7.1,9.067 15.683,14.917 25.75,17.55 2.067,-22.367 3.367,-41.117 3.9,-56.25 h 31.15 c 0.6,16.7 1,26.983 1.2,30.85 0.133,4.567 0.367,8.7 0.7,12.4 0.333,4.833 2.317,4.833 5.95,0 8.8,-11.533 19.6,-25.95 32.4,-43.25 l 41.85,0.05 c -8.3,11.5 -13.3,18.317 -15,20.45 -3.233,4.233 -5.35,7.1 -6.35,8.6 -4.8,6.533 -8.317,11.5 -10.55,14.9 -3.833,5.9 -6.417,11.367 -7.75,16.4 -0.233,1.1 -0.417,2.4 -0.55,3.9 -0.3,13.267 1.917,24.133 6.65,32.6 7.333,14.367 11.517,26.967 12.55,37.8 -1.533,-2.367 -3.817,-5.7 -6.85,-10 -3.2,-4.633 -5.5,-8.033 -6.9,-10.2 -2.133,-3.2 -4.383,-6.35 -6.75,-9.45 -7.467,-10.667 -11.217,-21.467 -11.25,-32.4 0.267,-5.2 0.617,-9.217 1.05,-12.05 0.867,-5.4 2.367,-10 4.5,-13.8 2.9,-5.133 6.75,-11.1 11.55,-17.9 2.767,-3.867 6.933,-9.667 12.5,-17.4 h -12 c -3,4.867 -7.383,10.883 -13.15,18.05 -7.267,9 -11.867,14.883 -13.8,17.65 -2.233,3.067 -5.117,6.45 -8.65,10.15 l -0.15,0.2 c -9.967,10.6 -16.15,10.6 -18.55,0 -1.933,-13.4 -3.35,-28.833 -4.25,-46.3 h -8.4 c -0.4,6.7 -0.933,15.183 -1.6,25.45 -0.7,10.267 -1.2,17.583 -1.5,21.95 -0.033,0.433 -0.233,4.417 -0.6,11.95 -15.067,-0.633 -28.75,-6.583 -41.05,-17.85 -3.233,-3.3 -6,-6.8 -8.3,-10.5 -3.3,-6.067 -4.75,-12.417 -4.35,-19.05 0.067,-0.5 0.133,-1.017 0.2,-1.55 0.333,-2.3 0.883,-5.75 1.65,-10.35 l -8.7,0.15 c -1.433,5.933 -2.433,10.4 -3,13.4 -0.967,5.367 -0.75,9.883 0.65,13.55 3.133,7.1 9.117,17.8 17.95,32.1 l 3.6,7 c -8.867,-9.6 -22.15,-16.95 -39.85,-22.05 -5.9,-1.733 -10.467,-3.167 -13.7,-4.3 -7.333,-2.633 -12.733,-6.283 -16.2,-10.95 -3,-3.7 -4.583,-8.383 -4.75,-14.05 -0.1,-4.233 0.6,-9.217 2.1,-14.95 l -9.4,0.3 c -0.367,1.733 -1.25,5.217 -2.65,10.45 -1.167,4.333 -2,7.817 -2.5,10.45 3.033,3.367 6.117,7.567 9.25,12.6 3.633,5.967 6.333,10.45 8.1,13.45 9.533,15.733 18.067,28.883 25.6,39.45 7.9,12.833 18.7,22.8 32.4,29.9 3.833,1.967 7.65,3.383 11.45,4.25 5,1.033 11.517,1.583 19.55,1.65 10.8,0.067 17.35,0.2 19.65,0.4 6.6,0.433 13.117,2.317 19.55,5.65 5.267,2.7 11.067,7.05 17.4,13.05 l 3.45,-3 c 6.7,-5.233 14.283,-11.783 22.75,-19.65 1.7,-1.333 3.267,-1.333 4.7,0 8.467,7.867 16.033,14.417 22.7,19.65 l 4.2,3.25 8.4,7.65 c 3.033,2.667 5.233,4.75 6.6,6.25 2.5,2.6 3.7,5.217 3.6,7.85 -0.033,27.433 -0.083,48.017 -0.15,61.75 0.1,2.467 -1.25,3.9 -4.05,4.3 -0.833,0.133 -1.65,0.2 -2.45,0.2"
       style="fill:#fd7755;fill-opacity:1;fill-rule:nonzero;stroke:none"
       transform="matrix(0.35277776,0,0,-0.35277776,-90.399623,82.426525)"
       clip-path="url(#clipPath3)" />
    <path
       id="path4"
       d="m 0,0 c -10.929,-0.147 -20.555,-2.695 -28.88,-7.646 -8.179,-4.878 -14.633,-11.424 -19.364,-19.639 -0.147,-0.037 -0.238,-0.165 -0.275,-0.385 -4.694,-8.362 -7.078,-17.64 -7.151,-27.835 v -0.11 c 0.073,-10.232 2.494,-19.547 7.261,-27.945 4.731,-8.362 11.24,-15 19.529,-19.914 8.325,-4.951 17.933,-7.5 28.825,-7.647 h 0.11 c 8.728,0.074 16.686,1.724 23.874,4.951 0.074,0 0.147,0.019 0.22,0.055 7.152,3.338 13.276,7.885 18.374,13.643 4.364,4.951 7.646,10.543 9.847,16.778 0.22,0.623 0.22,1.247 0,1.87 v -0.055 c -0.184,0.66 -0.55,1.174 -1.1,1.541 -0.551,0.403 -1.119,0.605 -1.706,0.605 H 38.452 c -0.587,0 -1.137,-0.184 -1.65,-0.55 -0.514,-0.33 -0.88,-0.807 -1.1,-1.431 -2.568,-6.454 -6.822,-11.699 -12.763,-15.733 -0.11,-0.036 -0.183,-0.11 -0.22,-0.22 -6.308,-4.29 -13.881,-6.491 -22.719,-6.601 -7.995,0.037 -14.963,1.87 -20.904,5.501 h 0.055 c -5.904,3.704 -10.452,8.6 -13.642,14.688 -3.228,6.124 -4.86,12.964 -4.896,20.519 0.036,7.591 1.668,14.412 4.896,20.464 3.19,6.124 7.738,11.002 13.642,14.632 h -0.055 c 5.941,3.668 12.909,5.556 20.904,5.666 8.912,-0.146 16.54,-2.42 22.884,-6.821 l 0.055,-0.055 h 0.055 c 5.905,-3.997 10.14,-9.278 12.708,-15.843 0.22,-0.55 0.605,-1.008 1.155,-1.375 0.477,-0.33 1.008,-0.495 1.595,-0.495 h 11.112 c 0.587,0 1.155,0.201 1.706,0.605 0.55,0.403 0.916,0.898 1.1,1.485 0.183,0.697 0.165,1.32 -0.055,1.87 -2.201,6.235 -5.465,11.828 -9.792,16.779 -5.098,5.757 -11.222,10.286 -18.374,13.587 h 0.056 l -0.11,0.055 H 24.039 C 16.851,-1.705 8.838,-0.037 0,0 m -118.877,-14.798 h 0.055 c 8.802,0 16.265,-2.75 22.389,-8.251 l 0.11,-0.055 c 5.831,-5.391 9.645,-13.129 11.442,-23.215 h -69.643 c 1.394,7.482 3.851,13.515 7.372,18.099 0.073,0.036 0.128,0.091 0.165,0.165 3.594,4.694 7.829,8.086 12.707,10.177 4.951,2.127 10.085,3.154 15.403,3.08 m 50.664,-42.743 c 0.44,9.572 -0.99,18.52 -4.29,26.845 v 0.055 c -3.705,9.022 -9.407,16.338 -17.109,21.949 -7.701,5.648 -17.2,8.545 -28.495,8.692 h -0.11 c -11.222,-0.147 -20.794,-2.659 -28.715,-7.536 -8.032,-4.915 -14.175,-11.553 -18.429,-19.914 -4.217,-8.362 -6.344,-17.732 -6.381,-28.11 0.037,-10.672 2.311,-20.189 6.821,-28.551 4.511,-8.325 10.727,-14.889 18.649,-19.693 0.036,0 0.055,-0.019 0.055,-0.055 0.036,0 0.073,-0.019 0.11,-0.055 0.037,0 0.073,-0.019 0.11,-0.055 7.885,-4.695 16.888,-7.078 27.01,-7.152 h 0.165 c 8.948,0.074 16.778,1.651 23.489,4.731 6.638,3.044 12.066,7.133 16.283,12.268 3.447,4.18 6.088,8.746 7.922,13.697 v 0.055 c 0.146,0.624 0.146,1.229 0,1.815 v 0.055 c -0.257,0.624 -0.624,1.119 -1.1,1.486 -0.551,0.403 -1.137,0.605 -1.761,0.605 h -10.452 c -0.55,0 -1.045,-0.147 -1.485,-0.44 v 0.055 c -0.477,-0.294 -0.825,-0.679 -1.045,-1.155 -0.037,0 -0.055,-0.019 -0.055,-0.055 -3.521,-6.308 -7.793,-10.929 -12.818,-13.863 -0.073,0 -0.128,-0.018 -0.165,-0.055 -5.537,-2.971 -11.809,-4.419 -18.813,-4.346 h -0.055 c -6.381,0.037 -12.359,1.595 -17.933,4.676 v -0.055 c -5.465,3.081 -9.902,7.335 -13.313,12.762 -0.037,0.074 -0.055,0.129 -0.055,0.165 -3.411,5.355 -5.189,11.479 -5.336,18.374 h 84.331 c 0.733,0 1.393,0.257 1.98,0.77 0.624,0.55 0.954,1.228 0.99,2.035 M 95.608,24.26 c 0,0.843 -0.275,1.54 -0.825,2.09 -0.587,0.587 -1.302,0.88 -2.146,0.88 H 82.68 c -0.806,0 -1.503,-0.293 -2.09,-0.88 -0.587,-0.514 -0.88,-1.21 -0.88,-2.09 V -2.145 H 60.071 c -0.807,0 -1.503,-0.294 -2.09,-0.881 -0.587,-0.513 -0.88,-1.21 -0.88,-2.09 v -9.077 c 0,-0.843 0.293,-1.558 0.88,-2.145 v -0.055 c 0.587,-0.513 1.283,-0.77 2.09,-0.77 H 79.71 V -79.05 c 0.073,-7.041 1.467,-12.854 4.181,-17.438 2.64,-4.547 6.234,-7.958 10.781,-10.232 0.037,-0.037 0.092,-0.055 0.166,-0.055 4.547,-2.127 9.681,-3.19 15.402,-3.19 2.898,0 5.63,0.201 8.197,0.605 0.073,0 0.183,0.018 0.33,0.055 h -0.055 c 1.944,0.366 3.851,0.843 5.721,1.43 l 0.055,0.055 c 0.55,0.257 1.027,0.605 1.43,1.045 0,0.037 0.019,0.055 0.055,0.055 0.331,0.55 0.496,1.119 0.496,1.706 v 8.251 c 0,0.623 -0.165,1.174 -0.496,1.65 -0.366,0.551 -0.843,0.936 -1.43,1.156 h -0.055 c -0.587,0.183 -1.155,0.201 -1.705,0.055 -1.027,-0.22 -2.109,-0.422 -3.246,-0.606 h -0.055 c -2.42,-0.44 -4.694,-0.66 -6.821,-0.66 h -0.055 c -5.501,-0.036 -9.682,1.192 -12.542,3.686 l -0.055,0.055 c -2.934,2.677 -4.401,7.243 -4.401,13.698 v 60.566 h 27.89 c 0.843,0 1.559,0.257 2.145,0.77 l 0.055,0.055 c 0.514,0.587 0.771,1.302 0.771,2.145 v 9.077 c 0,0.844 -0.276,1.54 -0.826,2.09 -0.586,0.587 -1.302,0.881 -2.145,0.881 H 95.608 V 24.26 m -660.948,2.86 c -3.961,-5.758 -5.96,-12.652 -5.996,-20.684 V 6.381 c -0.073,-10.195 2.549,-18.63 7.866,-25.304 0,-0.074 0.037,-0.147 0.11,-0.221 0.037,-0.036 0.129,-0.11 0.275,-0.22 l 0.055,-0.055 c 5.208,-6.527 13.606,-11.974 25.195,-16.338 0.037,-0.036 0.092,-0.073 0.165,-0.11 l 22.004,-8.361 c 6.858,-2.641 12.157,-6.161 15.898,-10.562 v -0.055 c 0.037,-0.074 0.11,-0.147 0.22,-0.22 h 0.055 c 3.448,-4.328 5.208,-9.664 5.281,-16.008 v -0.055 c -0.073,-4.878 -1.357,-9.095 -3.851,-12.653 -0.11,-0.073 -0.183,-0.183 -0.22,-0.33 -2.713,-3.484 -6.307,-6.216 -10.782,-8.196 -0.183,-0.037 -0.33,-0.129 -0.44,-0.275 -4.474,-1.76 -9.425,-2.641 -14.852,-2.641 -4.805,0 -9.664,0.862 -14.578,2.586 -4.841,1.797 -9.04,4.547 -12.598,8.251 h 0.056 c -3.118,3.301 -5.098,7.372 -5.942,12.213 v 0.055 c -0.183,0.733 -0.531,1.302 -1.045,1.705 -0.55,0.513 -1.173,0.77 -1.87,0.77 h -11.497 c -0.55,0 -1.064,-0.165 -1.541,-0.495 -0.513,-0.293 -0.88,-0.715 -1.1,-1.265 v 0.055 c -0.257,-0.514 -0.367,-1.045 -0.33,-1.596 0.66,-6.637 2.861,-12.707 6.601,-18.208 l 0.055,-0.055 v -0.055 c 4.255,-6.161 10.159,-11.057 17.714,-14.688 7.408,-3.667 16.191,-5.537 26.35,-5.611 h 0.11 c 9.021,0.074 17.053,1.706 24.094,4.896 h 0.055 l 0.11,0.055 h -0.055 c 7.005,3.264 12.542,7.94 16.613,14.028 4.034,6.124 6.07,13.441 6.106,21.949 -0.036,11.112 -3.025,20.079 -8.966,26.9 l -0.055,0.055 v 0.055 c -0.037,0.073 -0.092,0.147 -0.165,0.22 -0.037,0.037 -0.074,0.073 -0.11,0.11 -5.978,6.821 -14.615,12.322 -25.91,16.503 l -19.639,7.536 c -0.073,0.074 -0.128,0.11 -0.165,0.11 -7.555,2.788 -13.092,6.125 -16.613,10.012 -0.073,0.074 -0.128,0.129 -0.165,0.165 -3.557,3.888 -5.336,9.114 -5.336,15.678 0.073,4.364 1.229,8.087 3.466,11.167 0.073,0.074 0.165,0.184 0.275,0.33 2.273,3.264 5.372,5.776 9.296,7.537 0.074,0 0.147,0.018 0.22,0.055 3.998,1.797 8.545,2.695 13.643,2.695 4.438,0 8.692,-0.825 12.762,-2.475 h -0.055 c 3.998,-1.614 7.518,-4.163 10.562,-7.647 0.037,-0.036 0.092,-0.073 0.165,-0.11 2.568,-3.043 4.493,-6.894 5.776,-11.552 0.147,-0.623 0.496,-1.137 1.046,-1.54 0.55,-0.403 1.137,-0.605 1.76,-0.605 h 11.442 c 0.623,0 1.192,0.147 1.705,0.44 v 0.055 c 0.477,0.367 0.826,0.807 1.046,1.32 V 6.326 c 0.256,0.587 0.33,1.174 0.22,1.761 -0.991,5.464 -2.916,10.708 -5.776,15.732 -0.037,0.294 -0.129,0.477 -0.276,0.551 -3.41,5.794 -8.343,10.58 -14.797,14.357 -0.074,0.037 -0.129,0.074 -0.165,0.11 -6.565,3.851 -14.835,5.831 -24.81,5.941 -8.508,0 -16.1,-1.522 -22.774,-4.565 -6.711,-3.044 -12.011,-7.409 -15.898,-13.093 m 312.183,-62.106 c 3.191,-6.088 4.823,-12.946 4.896,-20.574 v -0.055 c -0.073,-7.592 -1.705,-14.45 -4.896,-20.574 -3.191,-6.051 -7.665,-10.929 -13.423,-14.633 -5.794,-3.594 -12.469,-5.409 -20.023,-5.446 -7.702,0.037 -14.394,1.852 -20.079,5.446 -5.721,3.704 -10.177,8.582 -13.367,14.633 v 0.055 l -0.056,0.055 c -3.264,6.088 -4.895,12.927 -4.895,20.519 0,7.591 1.631,14.394 4.895,20.409 0.037,0.073 0.074,0.165 0.111,0.275 3.153,6.014 7.554,10.837 13.202,14.467 0.073,0 0.147,0.019 0.22,0.055 5.648,3.594 12.304,5.446 19.969,5.556 7.554,-0.11 14.229,-1.962 20.023,-5.556 l 0.055,-0.055 c 5.721,-3.594 10.177,-8.453 13.368,-14.577 m -83.451,85.705 c -0.843,0 -1.54,-0.293 -2.09,-0.88 -0.587,-0.55 -0.88,-1.247 -0.88,-2.09 V -105.95 c 0,-0.843 0.293,-1.558 0.88,-2.145 0.514,-0.587 1.21,-0.88 2.09,-0.88 h 9.847 c 0.844,0 1.559,0.293 2.146,0.88 h 0.055 c 0.513,0.587 0.77,1.302 0.77,2.145 v 13.423 c 3.85,-5.244 8.966,-9.535 15.348,-12.873 0.073,-0.073 0.165,-0.128 0.275,-0.165 6.968,-3.557 14.614,-5.409 22.939,-5.556 h 0.165 c 10.122,0.147 19.162,2.696 27.12,7.647 h -0.055 c 7.995,4.914 14.303,11.552 18.924,19.914 0.036,0 0.055,0.018 0.055,0.055 4.584,8.361 6.931,17.658 7.041,27.89 v 0.11 c -0.11,10.268 -2.476,19.602 -7.096,28 -0.037,0.037 -0.055,0.073 -0.055,0.11 -4.621,8.288 -10.911,14.871 -18.869,19.749 h 0.055 c -7.958,4.951 -17.017,7.499 -27.175,7.646 h -0.11 c -8.288,-0.147 -15.916,-2.017 -22.884,-5.611 -0.037,0 -0.074,-0.018 -0.11,-0.055 -6.492,-3.301 -11.681,-7.61 -15.568,-12.927 v 66.342 c 0,0.843 -0.275,1.54 -0.825,2.09 -0.587,0.587 -1.302,0.88 -2.146,0.88 h -9.847 m 136.041,1.211 h -0.055 -0.165 -0.11 c -3.484,-0.11 -6.272,-1.266 -8.362,-3.466 -0.037,0 -0.073,-0.018 -0.11,-0.055 -0.073,-0.073 -0.128,-0.165 -0.165,-0.275 -2.127,-2.127 -3.209,-4.749 -3.246,-7.866 v -0.111 c 0.074,-3.19 1.156,-5.886 3.246,-8.086 0.073,-0.073 0.147,-0.147 0.22,-0.22 2.09,-2.164 4.896,-3.319 8.417,-3.466 h 0.11 0.165 0.055 c 3.117,0.147 5.739,1.321 7.866,3.521 2.127,2.2 3.246,4.896 3.356,8.086 v 0.055 0.166 0.11 c -0.11,3.227 -1.229,5.922 -3.356,8.086 h 0.055 c -2.127,2.237 -4.767,3.411 -7.921,3.521 M -369.669,-5.116 c 0,0.844 -0.275,1.54 -0.825,2.09 -0.587,0.587 -1.302,0.881 -2.145,0.881 h -9.957 c -0.807,0 -1.485,-0.294 -2.035,-0.881 h 0.054 c -0.66,-0.513 -0.99,-1.21 -0.99,-2.09 V -55.34 c -0.036,-8.472 -1.393,-15.77 -4.07,-21.894 -0.074,-0.11 -0.129,-0.239 -0.165,-0.385 -2.751,-5.905 -6.418,-10.471 -11.003,-13.698 -0.036,0 -0.073,-0.018 -0.109,-0.055 -4.621,-3.264 -9.866,-4.896 -15.734,-4.896 -7.554,0.037 -13.569,2.604 -18.043,7.702 v 0.055 l -0.055,0.055 -0.055,0.11 c -4.621,5.207 -6.986,12.359 -7.096,21.454 v 61.776 c 0,0.844 -0.275,1.54 -0.825,2.09 -0.587,0.587 -1.302,0.881 -2.146,0.881 h -9.957 c -0.843,0 -1.54,-0.294 -2.09,-0.881 -0.587,-0.55 -0.88,-1.246 -0.88,-2.09 v -63.922 c 0.073,-8.545 1.742,-15.934 5.006,-22.169 3.337,-6.234 7.866,-11.075 13.587,-14.523 0.074,-0.22 0.22,-0.33 0.44,-0.33 5.832,-3.3 12.543,-4.987 20.134,-5.061 h 0.055 c 6.968,0 13.441,1.632 19.419,4.896 0.073,0.037 0.128,0.074 0.165,0.11 5.354,2.971 9.828,7.39 13.422,13.258 v -13.093 c 0,-0.843 0.312,-1.558 0.936,-2.145 v -0.055 c 0.55,-0.55 1.228,-0.825 2.035,-0.825 h 9.957 c 0.843,0 1.558,0.293 2.145,0.88 h 0.055 c 0.514,0.587 0.77,1.302 0.77,2.145 V -5.116 m 163.656,2.971 c -0.844,0 -1.541,-0.294 -2.091,-0.881 -0.586,-0.55 -0.88,-1.246 -0.88,-2.09 v -117.997 c -0.073,-6.418 -1.485,-10.929 -4.236,-13.532 -0.146,-0.074 -0.238,-0.165 -0.275,-0.275 -2.787,-2.458 -6.509,-3.631 -11.167,-3.521 h -0.055 c -1.32,0 -2.457,0.037 -3.41,0.11 h -0.055 -0.165 -0.11 c -0.807,0 -1.486,-0.293 -2.036,-0.88 h 0.055 c -0.66,-0.514 -0.99,-1.21 -0.99,-2.091 v -8.746 c 0,-0.734 0.293,-1.412 0.88,-2.036 0.477,-0.55 1.1,-0.861 1.871,-0.935 h 0.055 c 0.403,0 0.806,-0.018 1.21,-0.055 1.247,-0.146 2.585,-0.22 4.015,-0.22 8.802,-0.073 16.027,2.384 21.675,7.372 0,0.036 0.018,0.055 0.054,0.055 0,0.036 0.019,0.073 0.056,0.11 0,0.036 0.036,0.054 0.11,0.055 5.354,5.061 8.141,12.872 8.361,23.434 V -5.116 c 0,0.844 -0.275,1.54 -0.825,2.09 -0.587,0.587 -1.302,0.881 -2.145,0.881 z"
       style="fill:#000000;fill-opacity:1;fill-rule:nonzero;stroke:none"
       transform="matrix(0.35277776,0,0,-0.35277776,214.5193,64.12378)"
       clip-path="url(#clipPath5)" />
    <path
       id="path6"
       d="m 0,0 c -0.587,-0.55 -0.88,-1.229 -0.88,-2.035 v -9.737 c 0,-0.807 0.293,-1.522 0.88,-2.146 0.55,-0.55 1.247,-0.825 2.09,-0.825 h 75.529 l -68.487,-131.254 0.055,0.055 c -0.404,-0.587 -0.532,-1.229 -0.385,-1.926 l 0.055,-0.055 c 0.146,-0.696 0.495,-1.265 1.045,-1.705 0.513,-0.44 1.118,-0.66 1.815,-0.66 h 11.057 c 0.55,0 1.064,0.165 1.541,0.495 v -0.055 c 0.476,0.33 0.825,0.715 1.045,1.155 l 71.128,136.261 v 0.055 c 0.183,0.403 0.275,0.843 0.275,1.32 v 9.022 c 0,0.806 -0.275,1.485 -0.825,2.035 h 0.055 C 95.369,0.623 94.636,0.935 93.792,0.935 H 2.09 C 1.21,0.935 0.513,0.605 0,-0.055 Z"
       style="fill:#fd7855;fill-opacity:1;fill-rule:nonzero;stroke:none"
       transform="matrix(0.35277776,0,0,-0.35277776,269.21855,49.549578)"
       clip-path="url(#clipPath7)" />
  </g>
</svg>
